<?xml version="1.0" encoding="UTF-8"?>
<svg id="_图层_2" data-name="图层 2" xmlns="http://www.w3.org/2000/svg" viewBox="0 0 498 113.29">
  <defs>
    <style>
      .cls-1, .cls-2 {
        fill: currentColor;
        stroke: currentColor;
        stroke-miterlimit: 10;
      }

      .cls-2 {
        stroke-width: 3px;
      }
    </style>
  </defs>
  <g id="_图层_1-2" data-name="图层 1">
    <g>
      <g>
        <path class="cls-1" d="M144.68,38.49l-.06-.23c-.88-3.28-2.5-5.94-4.58-8.06.14,5.65-2.96,11.02-6.22,16.66l-.39.68c-2.26,3.91-4.66,7.94-6.57,11.1l-.86,1.38c-3.36,5.44-6.27,10.14-12.18,14.18-8.34,5.87-18.2,5.81-26.92,5.76-2.81-.02-5.48-.03-7.95.14l-.35.02c-3.22.06-5.96,1.57-8.17,4.49l-.14.18c-.86,1.06-1.7,2.26-2.58,3.54-3.43,4.92-7.69,11.04-16.17,12.42-4.37.86-9.98.84-14.94.83h-1.95c-.52,0-1.06,0-1.61,0-6.95,0-16.08-.89-21.94-6.55-.15-.15-.3-.3-.44-.45.5,4.73,2.33,8.64,5.44,11.65,5.86,5.66,14.98,6.55,21.94,6.55.55,0,1.09,0,1.61-.01h1.93c4.96.02,10.58.04,14.96-.83,8.48-1.37,12.74-7.5,16.17-12.42.88-1.27,1.72-2.48,2.58-3.54l.14-.18c2.21-2.92,4.95-4.43,8.17-4.49l.35-.02c2.47-.17,5.13-.16,7.95-.14,8.72.05,18.58.11,26.91-5.76,5.92-4.03,8.82-8.73,12.19-14.17l.86-1.39c1.91-3.15,4.3-7.18,6.57-11.09l.39-.69c3.81-6.6,7.41-12.84,5.86-19.57ZM120.9,23.02c-.28,0-.56,0-.83,0-9.68-.19-24.03-.09-35.57-.01l-2.04.02c-.93.01-1.82.02-2.67.03-8.36.08-14.4.13-23.33,3.82l-.27.12c-10.76,4.68-16.91,12.16-22.83,21.95-5.53,8.76-12.62,20.57-16.32,26.79-.41.69-.77,1.3-1.09,1.84l-.49.84c-1.49,2.53-3.23,5.49-4.21,8.95,3.98,1.9,8.52,2.65,12.71,2.91.27-.77.64-1.56,1.07-2.38.48-.94,1.05-1.9,1.63-2.89l.49-.84c.96-1.62,2.38-3.99,4.05-6.78,3.82-6.36,8.98-14.88,13.19-21.55l.07-.11c5.02-8.31,9.2-13.45,16.91-16.81l.11-.05c6.57-2.7,10.54-2.74,18.43-2.81.87-.01,1.78-.02,2.69-.03l1.99-.02c9.17-.06,20.13-.14,29.01-.07,2.26.01,4.39.04,6.32.08h.12s.11,0,.11,0c1.25-.01,2.91.11,4.61.46,1.03.22,2.08.52,3.05.93.21-.35.41-.71.62-1.06l.39-.68c1.92-3.33,3.79-6.57,4.97-9.82-4.08-1.92-8.7-2.76-12.89-2.82Z"/>
        <path class="cls-1" d="M115.07,11.81c-9.7-.19-24.07-.09-35.62-.01h-1.99c-.93.03-1.82.04-2.67.04-8.36.08-14.4.14-23.33,3.83l-.27.12c-10.76,4.67-16.91,12.16-22.83,21.95-6.13,9.71-14.19,23.21-17.41,28.63l-.5.84c-2.08,3.55-4.68,7.97-4.94,13.39v.2s0,.21,0,.21c.01.81.06,1.61.15,2.38.14.15.29.3.44.45,1.53,1.47,3.28,2.63,5.15,3.52,3.98,1.9,8.52,2.65,12.71,2.91,1.41.09,2.78.12,4.08.12.55,0,1.09-.01,1.61-.01h1.95c4.95.01,10.57.03,14.94-.83,8.48-1.38,12.74-7.5,16.17-12.42.88-1.28,1.72-2.48,2.58-3.54l.14-.18c2.21-2.92,4.95-4.44,8.17-4.49l.35-.02c2.47-.17,5.14-.16,7.95-.14,8.71.05,18.58.1,26.92-5.76,5.91-4.04,8.82-8.74,12.18-14.18l.86-1.39c1.74-2.86,3.87-6.45,5.95-10.03.21-.35.41-.71.62-1.06l.39-.68c1.92-3.33,3.79-6.57,4.97-9.82.82-2.26,1.31-4.53,1.25-6.84-5.18-5.29-13.22-7.25-19.97-7.19ZM122.56,40.37l-.39.67c-2.21,3.81-4.55,7.77-6.39,10.79l-.84,1.36c-3.01,4.87-4.83,7.81-8.48,10.29l-.1.07c-4.94,3.49-11.95,3.45-19.38,3.41-2.88-.02-5.87-.04-8.79.16-7.1.19-13.51,3.58-18.07,9.57-1.13,1.4-2.12,2.83-3.08,4.21-2.92,4.18-4.71,6.57-7.64,7.02l-.31.06c-3.09.63-8.28.61-12.45.6h-2.16c-3.85.07-7.01-.16-9.45-.69-2.24-.48-3.87-1.22-4.89-2.2-.66-.64-1.54-1.81-1.63-4.65.11-1.35.71-2.82,1.52-4.35.48-.94,1.05-1.9,1.63-2.89l.49-.84c3.17-5.33,11.19-18.75,17.24-28.33l.07-.11c5.02-8.32,9.2-13.45,16.92-16.81l.1-.05c6.57-2.7,10.54-2.74,18.43-2.82.87,0,1.78,0,2.69-.03h1.94c11.52-.09,25.86-.19,35.38,0h.23c1.25-.01,2.92.11,4.61.46,3.15.66,6.4,2.12,7.27,5.02.2,1.2-.89,3.62-2.27,6.18-.7,1.31-1.48,2.65-2.2,3.9ZM120.07,23.01c-9.68-.19-24.03-.09-35.57-.01l-2.04.02c-.93.01-1.82.02-2.67.03-8.36.08-14.4.13-23.33,3.82l-.27.12c-10.76,4.68-16.91,12.16-22.83,21.95-5.53,8.76-12.62,20.57-16.32,26.79-.78-.35-1.41-.77-1.9-1.24-.66-.64-1.54-1.81-1.63-4.65.18-2.18,1.62-4.64,3.15-7.25l.49-.83c3.17-5.32,11.18-18.73,17.24-28.33l.07-.12c5.02-8.31,9.2-13.45,16.92-16.81l.1-.04c6.57-2.7,10.54-2.74,18.43-2.82.87-.01,1.78-.01,2.69-.03h1.99c11.5-.09,25.82-.19,35.33,0h.23c3.57-.04,10.55,1.02,11.88,5.48.14.84-.35,2.27-1.13,3.93-.28,0-.56,0-.83,0Z"/>
        <path class="cls-1" d="M134.68,16.09l-.06-.23c-3.07-11.45-15.08-15.33-24.55-15.25-9.68-.19-24.03-.09-35.57-.01h-2.04c-.93.03-1.82.04-2.67.04-8.36.08-14.4.14-23.33,3.83l-.27.12c-10.76,4.67-16.91,12.16-22.83,21.95-6.14,9.73-14.2,23.22-17.41,28.62l-.49.85c-2.09,3.55-4.69,7.96-4.95,13.39v.2s0,.21,0,.21c.09,5.57,1.82,10.13,5.15,13.58.14.15.29.3.44.45,1.53,1.47,3.28,2.63,5.15,3.52,3.98,1.9,8.52,2.65,12.71,2.91,1.41.09,2.78.12,4.08.12.55,0,1.09-.01,1.61-.01h1.95c4.95.01,10.57.03,14.94-.83,8.48-1.38,12.74-7.5,16.17-12.42.88-1.28,1.72-2.48,2.58-3.54l.14-.18c2.21-2.92,4.95-4.44,8.17-4.49l.35-.02c2.47-.17,5.14-.16,7.95-.14,8.71.05,18.58.1,26.92-5.76,5.91-4.04,8.82-8.74,12.18-14.18l.86-1.39c1.74-2.86,3.87-6.45,5.95-10.03.21-.35.41-.71.62-1.06l.39-.68c1.92-3.33,3.79-6.57,4.97-9.82.82-2.26,1.31-4.53,1.25-6.84-.02-.96-.14-1.93-.36-2.91ZM119.76,25.27c-.7,1.31-1.48,2.65-2.2,3.9l-.39.67c-1.19,2.04-2.41,4.13-3.57,6.09-1.01,1.7-1.97,3.31-2.82,4.7l-.84,1.36c-3.01,4.87-4.83,7.81-8.48,10.29l-.1.07c-4.94,3.49-11.96,3.45-19.38,3.41-2.89-.02-5.87-.04-8.79.16-7.1.18-13.51,3.58-18.07,9.57-1.13,1.4-2.12,2.83-3.08,4.21-2.92,4.18-4.71,6.57-7.64,7.02l-.31.06c-3.09.63-8.27.61-12.45.6h-2.16c-3.85.07-7.01-.16-9.45-.69-1.16-.25-2.16-.57-2.99-.96-.78-.35-1.41-.77-1.9-1.24-.66-.64-1.54-1.81-1.63-4.65.18-2.18,1.62-4.64,3.15-7.25l.49-.83c3.17-5.32,11.18-18.73,17.24-28.33l.07-.12c5.02-8.31,9.2-13.45,16.92-16.81l.1-.04c6.57-2.7,10.54-2.74,18.43-2.82.87-.01,1.78-.01,2.69-.03h1.99c11.5-.09,25.82-.19,35.33,0h.23c3.57-.04,10.55,1.02,11.88,5.48.14.84-.35,2.27-1.13,3.93-.34.72-.73,1.48-1.14,2.25Z"/>
      </g>
      <path class="cls-2" d="M206.23,28.95c4.16.04,7.37,1.03,9.63,2.97,2.26,1.94,3.39,4.73,3.39,8.37,0,1-.04,1.78-.12,2.34l-.36,3.06c-.56,4.4-2.24,7.77-5.04,10.11-2.8,2.34-6.54,3.53-11.22,3.57h-12.24l-1.8,14.64h-7.08l5.52-45.06h19.32ZM203.47,52.77c2.48-.04,4.38-.59,5.7-1.65,1.32-1.06,2.14-2.75,2.46-5.07l.48-3.66c.04-.28.06-.66.06-1.14,0-1.96-.53-3.39-1.59-4.29s-2.71-1.37-4.95-1.41h-12.42l-2.16,17.22h12.42Z"/>
      <path class="cls-2" d="M230.89,74.01c-3,0-5.4-.85-7.2-2.55-1.8-1.7-2.7-3.91-2.7-6.63,0-.6.02-1.06.06-1.38.36-2.48,1-4.45,1.92-5.91s2.25-2.52,3.99-3.18c1.74-.66,4.03-.99,6.87-.99h10.08l.06-.48c.04-.2.06-.48.06-.84,0-1.56-.52-2.82-1.56-3.78s-2.66-1.44-4.86-1.44h-1.56c-3.56,0-6.76.1-9.6.3l.9-6.12,1.74-.12c.64-.04,1.77-.1,3.39-.18,1.62-.08,3.03-.12,4.23-.12h1.62c4.12,0,7.24.98,9.36,2.94,2.12,1.96,3.18,4.58,3.18,7.86,0,.36-.04.98-.12,1.86l-2.46,20.76h-17.4ZM227.89,64.17c0,1.16.33,2.05.99,2.67s1.61.93,2.85.93h10.44l1.02-8.4-9.96-.06c-1.52-.04-2.73.25-3.63.87-.9.62-1.45,1.71-1.65,3.27l-.06.72Z"/>
      <path class="cls-2" d="M271.93,47.01c-2.48,0-4.37.66-5.67,1.98-1.3,1.32-2.11,3.28-2.43,5.88l-.6,5.16c-.08.8-.12,1.38-.12,1.74,0,4.04,2.06,6.06,6.18,6.06h2.34c1.8,0,4.82-.18,9.06-.54l-.66,6.42c-3.52.36-6.54.54-9.06.54h-2.46c-8.28,0-12.42-3.76-12.42-11.28,0-1,.06-2.04.18-3.12l.6-4.8c.6-4.8,2.2-8.41,4.8-10.83,2.6-2.42,6.28-3.63,11.04-3.63h2.22l8.4.12-.78,6.36-10.62-.06Z"/>
      <path class="cls-2" d="M292.81,73.95h-6.9l5.88-47.28h6.9l-3.18,25.68,13.38-11.76h9.72l-17.7,15,14.7,18.36h-8.94l-11.88-15.84-1.98,15.84Z"/>
      <path class="cls-2" d="M355.75,40.59l-24.54,46.02h-7.32l7.44-13.98-10.5-32.04h7.5l7.26,23.76h.18l12.66-23.76h7.32Z"/>
      <path class="cls-2" d="M381.3,28.95c1.68,0,4.08.04,7.2.12l3.72.06-.9,6.66-3.48-.12c-4-.08-6.5-.12-7.5-.12h-2.64c-3.64,0-6.35.92-8.13,2.76-1.78,1.84-2.95,4.82-3.51,8.94l-1.08,8.7c-.16,1.6-.24,2.72-.24,3.36,0,2.92.69,5.04,2.07,6.36,1.38,1.32,3.65,1.98,6.81,1.98h2.88c2.12,0,5.56-.14,10.32-.42l1.5-.06-.48,6.6c-3.92.32-7.9.48-11.94.48h-2.88c-5.28-.04-9.16-1.18-11.64-3.42-2.48-2.24-3.72-5.76-3.72-10.56,0-1.24.1-2.8.3-4.68l.9-7.98c.84-6.52,2.83-11.25,5.97-14.19,3.14-2.94,7.75-4.43,13.83-4.47h2.64Z"/>
      <path class="cls-2" d="M395.52,54.81c1.16-9.64,6.46-14.46,15.9-14.46h2.88c8.28,0,12.42,3.8,12.42,11.4,0,.92-.06,1.92-.18,3l-.6,5.04c-1.16,9.64-6.46,14.46-15.9,14.46h-2.88c-8.28,0-12.42-3.8-12.42-11.4,0-.92.06-1.92.18-3l.6-5.04ZM410.82,67.84c4.8,0,7.52-2.62,8.16-7.86l.66-5.4c.08-.8.12-1.36.12-1.68,0-4.08-2.08-6.12-6.24-6.12h-2.88c-4.8,0-7.52,2.62-8.16,7.86l-.66,5.4c-.08.8-.12,1.36-.12,1.68,0,4.08,2.08,6.12,6.24,6.12h2.88Z"/>
      <path class="cls-2" d="M431.88,55.05c1.16-9.64,6.32-14.46,15.48-14.46h7.86l1.56-12.84h6.9l-5.64,46.26h-14.46c-8.28,0-12.42-3.8-12.42-11.4,0-.92.06-1.92.18-3l.54-4.56ZM451.92,67.59l2.52-20.7h-7.86c-4.52,0-7.1,2.66-7.74,7.98l-.6,4.92c-.08.8-.12,1.38-.12,1.74,0,4.04,2.08,6.06,6.24,6.06h7.56Z"/>
      <path class="cls-2" d="M484.02,40.35c4.12,0,7.23.97,9.33,2.91,2.1,1.94,3.15,4.81,3.15,8.61,0,.88-.06,1.84-.18,2.88l-.66,5.4h-22.38v.06c-.08.88-.12,1.48-.12,1.8,0,2.04.59,3.55,1.77,4.53,1.18.98,3.17,1.47,5.97,1.47h2.94c2.08,0,5.24-.18,9.48-.54l-.66,6.24c-3.52.36-6.68.54-9.48.54h-2.94c-4.84,0-8.39-.98-10.65-2.94-2.26-1.96-3.39-4.84-3.39-8.64,0-.92.06-1.86.18-2.82l.6-5.04c.56-4.8,2.14-8.41,4.74-10.83,2.6-2.42,6.3-3.63,11.1-3.63h1.2ZM489.48,54.34v-.06c.08-.88.12-1.52.12-1.92,0-1.92-.51-3.38-1.53-4.38-1.02-1-2.63-1.5-4.83-1.5h-1.2c-4.72,0-7.4,2.62-8.04,7.86h15.48Z"/>
    </g>
  </g>
</svg>